<?xml version="1.0" encoding="utf-8"?><svg viewBox="0 0 24 25" xmlns="http://www.w3.org/2000/svg" xmlns:xlink="http://www.w3.org/1999/xlink"><style>:root>svg{display:none}:root>svg:target{display:block}</style><svg fill="none" viewBox="0 0 24 25" id="burger-close" xmlns="http://www.w3.org/2000/svg"><path d="M18.728 6L6 18.728M18.728 18.728L6 6" stroke="#fff" stroke-linecap="round" stroke-linejoin="round"/></svg><svg fill="none" viewBox="0 0 20 11" id="burger-open" xmlns="http://www.w3.org/2000/svg"><path d="M19 .5H1M19 5.5H1M19 10.5H1" stroke="#fff" stroke-linecap="round" stroke-linejoin="round"/></svg><svg fill="none" viewBox="0 0 10 10" id="phone" xmlns="http://www.w3.org/2000/svg"><path d="M9.115 6.838v1.375a.917.917 0 01-.999.917 9.07 9.07 0 01-3.955-1.407 8.938 8.938 0 01-2.75-2.75A9.07 9.07 0 01.004.999.917.917 0 01.916 0H2.29a.917.917 0 01.916.788c.059.44.166.872.321 1.288a.917.917 0 01-.206.967l-.582.582a7.333 7.333 0 002.75 2.75l.582-.582a.917.917 0 01.967-.206c.416.155.848.263 1.288.321a.917.917 0 01.788.93z" fill="#fff"/></svg><svg fill="none" viewBox="0 0 13 11" id="tg" xmlns="http://www.w3.org/2000/svg"><path d="M11.916.323L.835 4.596c-.757.304-.752.726-.14.914l2.846.888 6.582-4.154c.312-.189.596-.087.362.12L5.152 7.178h-.001.001l-.196 2.933c.287 0 .414-.132.575-.288L6.913 8.48l2.875 2.123c.53.292.91.142 1.042-.49l1.887-8.893c.193-.774-.296-1.125-.801-.896z" fill="#fff"/></svg><svg fill="none" viewBox="0 0 16 16" id="what" xmlns="http://www.w3.org/2000/svg"><path d="M14.12 4.13C11.96.8 7.55-.19 4.13 1.88.8 3.95-.28 8.45 1.88 11.78l.18.27-.72 2.7 2.7-.72.27.18c1.17.63 2.43.99 3.69.99 1.35 0 2.7-.36 3.87-1.08 3.33-2.16 4.32-6.57 2.25-9.99zm-1.89 6.93c-.36.54-.81.9-1.44.99-.36 0-.81.18-2.61-.54-1.53-.72-2.79-1.89-3.69-3.24-.54-.63-.81-1.44-.9-2.25 0-.72.27-1.35.72-1.8.18-.18.36-.27.54-.27h.45c.18 0 .36 0 .45.36.18.45.63 1.53.63 1.62.09.09.09.27 0 .36.09.18 0 .36-.09.45-.09.09-.18.27-.27.36-.18.09-.27.27-.18.45.36.54.81 1.08 1.26 1.53.54.45 1.08.81 1.71 1.08.18.09.36.09.45-.09.09-.18.54-.63.72-.81.18-.18.27-.18.45-.09l1.44.72c.18.09.36.18.45.27.09.27.09.63-.09.9z" fill="#fff"/></svg></svg>